<?xml version="1.0" encoding="UTF-8"?>
<svg xmlns="http://www.w3.org/2000/svg" xmlns:xlink="http://www.w3.org/1999/xlink" width="74px" height="60px" viewBox="0 0 73 60" version="1.1">
<g id="surface1">
<path style=" stroke:none;fill-rule:nonzero;fill:rgb(11.372549%,63.137255%,94.901961%);fill-opacity:1;" d="M 23.214844 59.800781 C 50.242188 59.800781 65.015625 36.890625 65.015625 17.023438 C 65.015625 16.375 65.003906 15.726562 64.976562 15.078125 C 67.84375 12.960938 70.335938 10.308594 72.304688 7.292969 C 69.671875 8.492188 66.835938 9.300781 63.867188 9.664062 C 66.902344 7.800781 69.230469 4.855469 70.328125 1.34375 C 67.488281 3.070312 64.34375 4.320312 61 4.996094 C 58.316406 2.074219 54.5 0.246094 50.273438 0.246094 C 42.160156 0.246094 35.582031 6.976562 35.582031 15.277344 C 35.582031 16.457031 35.710938 17.605469 35.960938 18.707031 C 23.753906 18.078125 12.925781 12.09375 5.679688 3 C 4.417969 5.222656 3.6875 7.800781 3.6875 10.554688 C 3.6875 15.773438 6.285156 20.375 10.230469 23.070312 C 7.816406 22.992188 5.554688 22.316406 3.574219 21.1875 C 3.570312 21.253906 3.570312 21.3125 3.570312 21.382812 C 3.570312 28.664062 8.636719 34.742188 15.359375 36.117188 C 14.125 36.464844 12.824219 36.648438 11.484375 36.648438 C 10.539062 36.648438 9.621094 36.550781 8.722656 36.378906 C 10.59375 42.351562 16.019531 46.699219 22.449219 46.820312 C 17.417969 50.851562 11.085938 53.253906 4.203125 53.253906 C 3.015625 53.253906 1.847656 53.183594 0.695312 53.046875 C 7.199219 57.308594 14.921875 59.800781 23.21875 59.800781 "/>
</g>
</svg>
